<mxfile host="app.diagrams.net" modified="2022-10-10T07:11:47.142Z" agent="5.0 (Windows NT 6.1; Win64; x64) AppleWebKit/537.36 (KHTML, like Gecko) Chrome/105.0.0.0 Safari/537.36" etag="GeuTcCRTM6zhcOUTh9Hk" version="20.4.0" type="github">
  <diagram id="C5RBs43oDa-KdzZeNtuy" name="Page-1">
    <mxGraphModel dx="1422" dy="794" grid="1" gridSize="10" guides="1" tooltips="1" connect="1" arrows="1" fold="1" page="1" pageScale="1" pageWidth="827" pageHeight="1169" math="0" shadow="0">
      <root>
        <mxCell id="WIyWlLk6GJQsqaUBKTNV-0" />
        <mxCell id="WIyWlLk6GJQsqaUBKTNV-1" parent="WIyWlLk6GJQsqaUBKTNV-0" />
        <mxCell id="m6Q66YqN6v0zg1EJGyce-28" style="edgeStyle=orthogonalEdgeStyle;rounded=1;orthogonalLoop=1;jettySize=auto;html=1;exitX=1;exitY=0.5;exitDx=0;exitDy=0;entryX=1;entryY=0.5;entryDx=0;entryDy=0;fontSize=14;" edge="1" parent="WIyWlLk6GJQsqaUBKTNV-1" source="m6Q66YqN6v0zg1EJGyce-0" target="m6Q66YqN6v0zg1EJGyce-2">
          <mxGeometry relative="1" as="geometry">
            <Array as="points">
              <mxPoint x="660" y="335" />
              <mxPoint x="660" y="525" />
            </Array>
          </mxGeometry>
        </mxCell>
        <mxCell id="m6Q66YqN6v0zg1EJGyce-33" style="edgeStyle=orthogonalEdgeStyle;rounded=1;orthogonalLoop=1;jettySize=auto;html=1;exitX=1;exitY=0.5;exitDx=0;exitDy=0;entryX=1;entryY=0.5;entryDx=0;entryDy=0;fontSize=14;" edge="1" parent="WIyWlLk6GJQsqaUBKTNV-1" source="m6Q66YqN6v0zg1EJGyce-0" target="m6Q66YqN6v0zg1EJGyce-29">
          <mxGeometry relative="1" as="geometry">
            <Array as="points">
              <mxPoint x="660" y="335" />
              <mxPoint x="660" y="625" />
            </Array>
          </mxGeometry>
        </mxCell>
        <mxCell id="m6Q66YqN6v0zg1EJGyce-38" style="edgeStyle=orthogonalEdgeStyle;rounded=1;orthogonalLoop=1;jettySize=auto;html=1;exitX=0.75;exitY=1;exitDx=0;exitDy=0;entryX=0.75;entryY=0;entryDx=0;entryDy=0;fontSize=14;" edge="1" parent="WIyWlLk6GJQsqaUBKTNV-1" source="m6Q66YqN6v0zg1EJGyce-0" target="m6Q66YqN6v0zg1EJGyce-3">
          <mxGeometry relative="1" as="geometry" />
        </mxCell>
        <mxCell id="m6Q66YqN6v0zg1EJGyce-0" value="&lt;font style=&quot;font-size: 14px;&quot;&gt;Vymyslet téma&lt;/font&gt;" style="rounded=0;whiteSpace=wrap;html=1;strokeWidth=2;" vertex="1" parent="WIyWlLk6GJQsqaUBKTNV-1">
          <mxGeometry x="367" y="320" width="96" height="30" as="geometry" />
        </mxCell>
        <mxCell id="m6Q66YqN6v0zg1EJGyce-1" value="&lt;font style=&quot;font-size: 15px;&quot;&gt;Tvoření diagramu&lt;/font&gt;" style="text;html=1;align=center;verticalAlign=middle;resizable=0;points=[];autosize=1;strokeColor=default;fillColor=none;strokeWidth=5;" vertex="1" parent="WIyWlLk6GJQsqaUBKTNV-1">
          <mxGeometry x="344" y="70" width="140" height="30" as="geometry" />
        </mxCell>
        <mxCell id="m6Q66YqN6v0zg1EJGyce-30" value="" style="edgeStyle=orthogonalEdgeStyle;rounded=1;orthogonalLoop=1;jettySize=auto;html=1;fontSize=14;" edge="1" parent="WIyWlLk6GJQsqaUBKTNV-1" source="m6Q66YqN6v0zg1EJGyce-2" target="m6Q66YqN6v0zg1EJGyce-29">
          <mxGeometry relative="1" as="geometry" />
        </mxCell>
        <mxCell id="m6Q66YqN6v0zg1EJGyce-2" value="&lt;span style=&quot;font-size: 14px;&quot;&gt;upravit&lt;/span&gt;" style="rounded=0;whiteSpace=wrap;html=1;strokeWidth=2;" vertex="1" parent="WIyWlLk6GJQsqaUBKTNV-1">
          <mxGeometry x="366" y="510" width="96" height="30" as="geometry" />
        </mxCell>
        <mxCell id="m6Q66YqN6v0zg1EJGyce-34" style="edgeStyle=orthogonalEdgeStyle;rounded=1;orthogonalLoop=1;jettySize=auto;html=1;exitX=0.25;exitY=1;exitDx=0;exitDy=0;fontSize=14;entryX=0;entryY=0.5;entryDx=0;entryDy=0;" edge="1" parent="WIyWlLk6GJQsqaUBKTNV-1" source="m6Q66YqN6v0zg1EJGyce-3" target="m6Q66YqN6v0zg1EJGyce-29">
          <mxGeometry relative="1" as="geometry">
            <mxPoint x="280" y="620" as="targetPoint" />
            <Array as="points">
              <mxPoint x="391" y="470" />
              <mxPoint x="280" y="470" />
              <mxPoint x="280" y="625" />
            </Array>
          </mxGeometry>
        </mxCell>
        <mxCell id="m6Q66YqN6v0zg1EJGyce-37" style="edgeStyle=orthogonalEdgeStyle;rounded=1;orthogonalLoop=1;jettySize=auto;html=1;exitX=0.25;exitY=0;exitDx=0;exitDy=0;entryX=0.25;entryY=1;entryDx=0;entryDy=0;fontSize=14;" edge="1" parent="WIyWlLk6GJQsqaUBKTNV-1" source="m6Q66YqN6v0zg1EJGyce-3" target="m6Q66YqN6v0zg1EJGyce-0">
          <mxGeometry relative="1" as="geometry" />
        </mxCell>
        <mxCell id="m6Q66YqN6v0zg1EJGyce-3" value="&lt;font style=&quot;font-size: 14px;&quot;&gt;Vytvořit základ&lt;/font&gt;" style="rounded=0;whiteSpace=wrap;html=1;strokeWidth=2;" vertex="1" parent="WIyWlLk6GJQsqaUBKTNV-1">
          <mxGeometry x="367" y="400" width="96" height="30" as="geometry" />
        </mxCell>
        <mxCell id="m6Q66YqN6v0zg1EJGyce-4" value="&lt;span style=&quot;font-size: 14px;&quot;&gt;zapojit klávesnici a myš&lt;/span&gt;" style="rounded=0;whiteSpace=wrap;html=1;strokeWidth=2;" vertex="1" parent="WIyWlLk6GJQsqaUBKTNV-1">
          <mxGeometry x="550" y="180" width="110" height="40" as="geometry" />
        </mxCell>
        <mxCell id="m6Q66YqN6v0zg1EJGyce-12" value="" style="edgeStyle=orthogonalEdgeStyle;rounded=0;orthogonalLoop=1;jettySize=auto;html=1;fontSize=14;" edge="1" parent="WIyWlLk6GJQsqaUBKTNV-1" source="m6Q66YqN6v0zg1EJGyce-5" target="m6Q66YqN6v0zg1EJGyce-0">
          <mxGeometry relative="1" as="geometry" />
        </mxCell>
        <mxCell id="m6Q66YqN6v0zg1EJGyce-20" value="" style="edgeStyle=orthogonalEdgeStyle;rounded=1;orthogonalLoop=1;jettySize=auto;html=1;fontSize=14;entryX=0;entryY=0.5;entryDx=0;entryDy=0;" edge="1" parent="WIyWlLk6GJQsqaUBKTNV-1" source="m6Q66YqN6v0zg1EJGyce-5" target="m6Q66YqN6v0zg1EJGyce-3">
          <mxGeometry relative="1" as="geometry">
            <mxPoint x="290" y="420" as="targetPoint" />
            <Array as="points">
              <mxPoint x="280" y="245" />
              <mxPoint x="280" y="415" />
            </Array>
          </mxGeometry>
        </mxCell>
        <mxCell id="m6Q66YqN6v0zg1EJGyce-5" value="&lt;span style=&quot;font-size: 14px;&quot;&gt;otevřít nějaký software (např. app.diagram.net)&lt;/span&gt;" style="rounded=0;whiteSpace=wrap;html=1;strokeWidth=2;" vertex="1" parent="WIyWlLk6GJQsqaUBKTNV-1">
          <mxGeometry x="353" y="220" width="124" height="50" as="geometry" />
        </mxCell>
        <mxCell id="m6Q66YqN6v0zg1EJGyce-9" value="" style="edgeStyle=orthogonalEdgeStyle;rounded=0;orthogonalLoop=1;jettySize=auto;html=1;fontSize=14;" edge="1" parent="WIyWlLk6GJQsqaUBKTNV-1" source="m6Q66YqN6v0zg1EJGyce-6" target="m6Q66YqN6v0zg1EJGyce-5">
          <mxGeometry relative="1" as="geometry" />
        </mxCell>
        <mxCell id="m6Q66YqN6v0zg1EJGyce-6" value="&lt;span style=&quot;font-size: 14px;&quot;&gt;sednout si k PC nebo k laptopu&lt;/span&gt;" style="rounded=0;whiteSpace=wrap;html=1;strokeWidth=2;" vertex="1" parent="WIyWlLk6GJQsqaUBKTNV-1">
          <mxGeometry x="360" y="140" width="110" height="50" as="geometry" />
        </mxCell>
        <mxCell id="m6Q66YqN6v0zg1EJGyce-7" value="" style="endArrow=classic;html=1;rounded=0;fontSize=14;exitX=0.514;exitY=1.1;exitDx=0;exitDy=0;exitPerimeter=0;entryX=0.5;entryY=0;entryDx=0;entryDy=0;" edge="1" parent="WIyWlLk6GJQsqaUBKTNV-1" source="m6Q66YqN6v0zg1EJGyce-1" target="m6Q66YqN6v0zg1EJGyce-6">
          <mxGeometry width="50" height="50" relative="1" as="geometry">
            <mxPoint x="330" y="420" as="sourcePoint" />
            <mxPoint x="380" y="370" as="targetPoint" />
          </mxGeometry>
        </mxCell>
        <mxCell id="m6Q66YqN6v0zg1EJGyce-15" value="" style="endArrow=classic;html=1;rounded=0;fontSize=14;exitX=1;exitY=0.5;exitDx=0;exitDy=0;entryX=0;entryY=0.25;entryDx=0;entryDy=0;" edge="1" parent="WIyWlLk6GJQsqaUBKTNV-1" source="m6Q66YqN6v0zg1EJGyce-6" target="m6Q66YqN6v0zg1EJGyce-4">
          <mxGeometry width="50" height="50" relative="1" as="geometry">
            <mxPoint x="330" y="390" as="sourcePoint" />
            <mxPoint x="380" y="340" as="targetPoint" />
          </mxGeometry>
        </mxCell>
        <mxCell id="m6Q66YqN6v0zg1EJGyce-18" value="pokud je třeba" style="edgeLabel;html=1;align=center;verticalAlign=middle;resizable=0;points=[];fontSize=14;textOpacity=50;" vertex="1" connectable="0" parent="m6Q66YqN6v0zg1EJGyce-15">
          <mxGeometry x="-0.2858" y="-2" relative="1" as="geometry">
            <mxPoint x="32" y="-14" as="offset" />
          </mxGeometry>
        </mxCell>
        <mxCell id="m6Q66YqN6v0zg1EJGyce-17" value="" style="endArrow=classic;html=1;rounded=0;fontSize=14;exitX=0;exitY=0.75;exitDx=0;exitDy=0;entryX=1;entryY=0.5;entryDx=0;entryDy=0;" edge="1" parent="WIyWlLk6GJQsqaUBKTNV-1" source="m6Q66YqN6v0zg1EJGyce-4" target="m6Q66YqN6v0zg1EJGyce-5">
          <mxGeometry width="50" height="50" relative="1" as="geometry">
            <mxPoint x="330" y="390" as="sourcePoint" />
            <mxPoint x="380" y="340" as="targetPoint" />
          </mxGeometry>
        </mxCell>
        <mxCell id="m6Q66YqN6v0zg1EJGyce-23" value="pokud není téma" style="edgeLabel;html=1;align=center;verticalAlign=middle;resizable=0;points=[];fontSize=14;textOpacity=50;" vertex="1" connectable="0" parent="WIyWlLk6GJQsqaUBKTNV-1">
          <mxGeometry x="219.99784935477913" y="319.9972097501484" as="geometry" />
        </mxCell>
        <mxCell id="m6Q66YqN6v0zg1EJGyce-26" value="" style="endArrow=classic;html=1;rounded=1;fontSize=14;exitX=0.25;exitY=1;exitDx=0;exitDy=0;entryX=0.25;entryY=0;entryDx=0;entryDy=0;" edge="1" parent="WIyWlLk6GJQsqaUBKTNV-1" source="m6Q66YqN6v0zg1EJGyce-3" target="m6Q66YqN6v0zg1EJGyce-2">
          <mxGeometry width="50" height="50" relative="1" as="geometry">
            <mxPoint x="330" y="390" as="sourcePoint" />
            <mxPoint x="380" y="340" as="targetPoint" />
          </mxGeometry>
        </mxCell>
        <mxCell id="m6Q66YqN6v0zg1EJGyce-32" value="" style="edgeStyle=orthogonalEdgeStyle;rounded=1;orthogonalLoop=1;jettySize=auto;html=1;fontSize=14;entryX=0.5;entryY=0;entryDx=0;entryDy=0;" edge="1" parent="WIyWlLk6GJQsqaUBKTNV-1" source="m6Q66YqN6v0zg1EJGyce-29" target="m6Q66YqN6v0zg1EJGyce-31">
          <mxGeometry relative="1" as="geometry">
            <Array as="points">
              <mxPoint x="430" y="700" />
              <mxPoint x="560" y="700" />
            </Array>
          </mxGeometry>
        </mxCell>
        <mxCell id="m6Q66YqN6v0zg1EJGyce-43" style="edgeStyle=orthogonalEdgeStyle;rounded=1;orthogonalLoop=1;jettySize=auto;html=1;exitX=0.25;exitY=1;exitDx=0;exitDy=0;entryX=0.5;entryY=0;entryDx=0;entryDy=0;fontSize=14;" edge="1" parent="WIyWlLk6GJQsqaUBKTNV-1" source="m6Q66YqN6v0zg1EJGyce-29" target="m6Q66YqN6v0zg1EJGyce-40">
          <mxGeometry relative="1" as="geometry">
            <Array as="points">
              <mxPoint x="393" y="700" />
              <mxPoint x="284" y="700" />
            </Array>
          </mxGeometry>
        </mxCell>
        <mxCell id="m6Q66YqN6v0zg1EJGyce-29" value="odeslat" style="rounded=0;whiteSpace=wrap;html=1;strokeColor=default;strokeWidth=2;fontSize=14;" vertex="1" parent="WIyWlLk6GJQsqaUBKTNV-1">
          <mxGeometry x="371" y="600" width="86" height="50" as="geometry" />
        </mxCell>
        <mxCell id="m6Q66YqN6v0zg1EJGyce-31" value="získat známku" style="rounded=0;whiteSpace=wrap;html=1;strokeColor=default;strokeWidth=2;fontSize=14;" vertex="1" parent="WIyWlLk6GJQsqaUBKTNV-1">
          <mxGeometry x="500" y="760" width="120" height="60" as="geometry" />
        </mxCell>
        <mxCell id="m6Q66YqN6v0zg1EJGyce-35" value="pokud je třeba" style="text;html=1;align=center;verticalAlign=middle;resizable=0;points=[];autosize=1;strokeColor=none;fillColor=none;fontSize=14;opacity=50;" vertex="1" parent="WIyWlLk6GJQsqaUBKTNV-1">
          <mxGeometry x="440" y="465" width="110" height="30" as="geometry" />
        </mxCell>
        <mxCell id="m6Q66YqN6v0zg1EJGyce-39" value="&lt;span style=&quot;background-color: rgb(255, 255, 255);&quot;&gt;pokud téma se naskytlo pozdě&lt;/span&gt;" style="rounded=0;whiteSpace=wrap;html=1;strokeColor=default;strokeWidth=2;fontSize=14;opacity=0;textOpacity=50;" vertex="1" parent="WIyWlLk6GJQsqaUBKTNV-1">
          <mxGeometry x="290" y="350" width="100" height="60" as="geometry" />
        </mxCell>
        <mxCell id="m6Q66YqN6v0zg1EJGyce-40" value="jít na další hodinu nebo jít domů" style="rounded=0;whiteSpace=wrap;html=1;strokeColor=default;strokeWidth=2;fontSize=14;" vertex="1" parent="WIyWlLk6GJQsqaUBKTNV-1">
          <mxGeometry x="224" y="760" width="120" height="60" as="geometry" />
        </mxCell>
        <mxCell id="m6Q66YqN6v0zg1EJGyce-42" value="" style="endArrow=classic;html=1;rounded=1;fontSize=14;exitX=1;exitY=0.5;exitDx=0;exitDy=0;entryX=0;entryY=0.5;entryDx=0;entryDy=0;" edge="1" parent="WIyWlLk6GJQsqaUBKTNV-1" source="m6Q66YqN6v0zg1EJGyce-40" target="m6Q66YqN6v0zg1EJGyce-31">
          <mxGeometry width="50" height="50" relative="1" as="geometry">
            <mxPoint x="340" y="850" as="sourcePoint" />
            <mxPoint x="390" y="800" as="targetPoint" />
          </mxGeometry>
        </mxCell>
      </root>
    </mxGraphModel>
  </diagram>
</mxfile>
